<?xml version="1.0" encoding="UTF-8" standalone="no"?><!DOCTYPE svg PUBLIC "-//W3C//DTD SVG 1.1//EN" "http://www.w3.org/Graphics/SVG/1.1/DTD/svg11.dtd"><svg width="100%" height="100%" viewBox="0 0 245 245" version="1.1" xmlns="http://www.w3.org/2000/svg" xmlns:xlink="http://www.w3.org/1999/xlink" xml:space="preserve" xmlns:serif="http://www.serif.com/" style="fill-rule:evenodd;clip-rule:evenodd;stroke-linejoin:round;stroke-miterlimit:2;"><g id="Background"><path d="M18.955,172.349c4.124,-0.185 8.95,-2.665 8.384,-3.912c-3.572,-7.869 -9.125,-22.931 13.737,-39.798c6.033,-4.451 22.05,-10.845 27.797,-9.078c1.518,0.467 -0.114,1.449 -0.218,1.513c-0.86,0.518 -2.68,2.139 -4.964,3.441c-0.518,0.295 -0.56,0.07 -6.624,3.414c-5.394,2.974 -7.233,-1.366 -10.776,2.9c-11.106,13.373 -4.305,27.934 -3.347,27.468c3.061,-1.489 28.234,-23.156 52.882,-51.823c4.645,-5.403 24.716,-29.522 23.14,-30.113c-1.292,-0.484 -10.426,-2.795 -14.15,-11.838c-7.533,-18.291 37.705,-40.991 43.293,-31.027c5.819,10.375 -13.433,33.48 -12.365,34.213c3.022,2.074 24.051,2.977 46.594,-5.341c29.698,-10.958 39.922,-17.274 40.507,-6.316c0.832,15.603 -8.902,46.813 -9.285,48.517c-0.221,0.984 -7.831,23.54 -11.902,30.553c-0.653,1.124 -2.198,3.787 -2.16,16.106c0.011,3.368 1.068,8.154 1.073,8.184c2.599,18.088 8.192,30.394 11.872,34.801c1.709,2.046 4.86,5.215 4.358,3.66c-3.188,-9.865 -9.284,-47.039 -1.895,-76.085c5.035,-19.795 5.041,-19.893 6.256,-21.175c4.52,-4.77 7.005,-5.911 7.727,-6.242c0.047,-0.022 3.902,-3.416 5.245,-3.366c1.92,0.071 -10.43,28.115 -8.319,61.033c1.891,29.495 9.186,46.423 7.464,48.251c-0.941,1 -13.047,12.209 -18.214,12.959c-14.495,2.106 -20.638,-16.025 -22.383,-16.172c-0.244,-0.02 -17.24,-3.659 -21.803,-3.962c-14.874,-0.99 -14.808,0.221 -29.468,3.108c-11.25,2.216 -11.933,5.599 -29.445,9.068c-46.255,9.162 -75.271,-18.93 -82.986,-33.57c-0.841,-1.595 -10.407,6.307 -20.672,8.912c-0.317,0.08 -6.694,1.698 -3.979,-0.935c0.137,-0.133 8.915,-7.222 14.629,-7.348Zm127.63,19.782l0.28,0.488c5.347,-1.382 11.277,-2.33 12.265,-2.488c21.255,-3.397 28.304,-1.041 30.82,-1.286c1.089,-0.106 -1.814,-0.277 -3.994,-13.083c-1.526,-8.966 -0.164,-14.643 -0.175,-14.674c-0.251,-0.707 0.037,0.654 -6.266,6.972c-10.96,10.985 -18.191,16.249 -32.93,24.071Zm58.488,-108.263c2.802,-12.584 2.272,-18.826 2.133,-20.466c-0.561,-6.603 -6.937,-3.716 -19.22,1.245c-46.343,18.719 -59.287,12.359 -60.957,14.375c-0.732,0.883 -8.02,9.677 -8.976,11.173c-1.958,3.061 -29.864,35.095 -50.39,52.723c-20.925,17.97 -22.031,16.604 -23.61,18.406c-0.155,0.176 3.967,9.502 14.944,18.338c20.292,16.334 37.641,18.192 53.231,17.933c59.708,-0.992 78.877,-65.461 82.868,-77.203c0.644,-1.895 5.464,-16.074 7.097,-23.992c1.202,-5.831 2.631,-11.535 2.881,-12.533Zm-70.911,-37.64c-0.466,-4.178 -0.035,-6.603 -8.309,-6.089c-2.89,0.179 -13.75,15.273 1.148,23.968c0.625,0.365 6.923,-11.897 7.161,-17.878Z" style="fill:#be5556;"/><path d="M129.407,152.738c-2.626,0.401 -2.665,-0.077 -32.994,3.721c-20.478,2.564 -22.293,1.843 -21.192,0.552c0.727,-0.853 10.599,-8.331 15.206,-7.794c2.386,0.278 51.166,-4.508 66,-7.433c2.031,-0.401 6.231,-1.449 5.76,-0.071c-0.13,0.379 -11.95,7.534 -14.473,8.013c-7.525,1.429 -15.846,2.594 -17.229,2.788c-0.087,0.012 -0.08,0.017 -1.078,0.223Z" style="fill:#bd5656;"/><path d="M178.227,112.35c4.055,0.551 -8.364,6.106 -11.427,8.1c-1.332,0.867 -24.34,4.619 -26.466,4.966c-25.006,4.078 -25.669,2.518 -45.024,4.978c-4.309,0.548 10.465,-9.15 16.092,-9.281c1.665,-0.039 1.625,-0.281 20.732,-1.863c25.783,-2.136 30.662,-4.919 45.018,-6.665c0.087,-0.011 0.08,-0.017 1.075,-0.234Z" style="fill:#bd5656;"/><path d="M159.413,91.624c2.302,-0.441 2.236,-0.456 2.432,-0.489c17.231,-2.867 25.121,-7.002 28.647,-6.901c1.923,0.055 0.092,0.828 -1.329,2.119c-3.189,2.896 -4.906,2.797 -7.719,4.495c-4.687,2.829 -5.02,1.918 -8.66,3.136c-3.052,1.021 -17.507,5.859 -39.299,8.589c-2.574,0.322 -13.404,2.716 -10.353,0.104c11.627,-9.959 20.479,-7.819 36.281,-11.054Z" style="fill:#bd5657;"/><path d="M127.227,172.348c1.774,-0.244 1.762,-0.251 1.916,-0.263c10.963,-0.888 11.192,-1.45 11.69,-0.657c0.244,0.387 -4.937,3.945 -7.937,5.309c-5.694,2.59 -5.431,3.593 -11.948,3.851c-8.609,0.341 -30.89,4.212 -38.17,5.061c-5.59,0.652 7.461,-6.411 8.212,-6.818c3.417,-1.849 8.436,-2.776 36.237,-6.484Z" style="fill:#bd5657;"/></g></svg>