<?xml version="1.0" encoding="UTF-8" standalone="no"?><!DOCTYPE svg PUBLIC "-//W3C//DTD SVG 1.1//EN" "http://www.w3.org/Graphics/SVG/1.1/DTD/svg11.dtd"><svg width="100%" height="100%" viewBox="0 0 245 245" version="1.1" xmlns="http://www.w3.org/2000/svg" xmlns:xlink="http://www.w3.org/1999/xlink" xml:space="preserve" xmlns:serif="http://www.serif.com/" style="fill-rule:evenodd;clip-rule:evenodd;stroke-linejoin:round;stroke-miterlimit:2;"><g id="Background"><path id="finish" d="M93.294,59.04c-9.113,29.288 -34.004,51.144 -30.719,75.826c0.594,4.459 0.931,15.359 12.207,29.528c8.875,11.152 20.179,15.177 21.363,14.391c0.307,-0.203 6.995,-3.572 2.313,1.22c-3.964,4.057 -9.635,9.539 -19.748,11.934c-22.224,5.262 -41.952,-10.979 -42.152,-11.123c-30.222,-21.896 -12.653,-49.476 -8.676,-57.446c0.332,-0.666 9.565,-16.967 11.982,-29.162c5.257,-26.531 -8.067,-35.964 15.995,-54.144c12.615,-9.531 23.227,-7.368 25.282,-6.949c12.305,2.509 13.205,14.821 13.367,15.291c0.691,2.004 -1.03,9.797 -1.215,10.633Zm-44.766,6.55c3.822,31.53 -13.724,51.142 -19.447,67.919c-11.386,33.38 24.443,50.123 40.618,53.115c7.471,1.382 14.746,-0.633 17.737,-1.241c4.13,-0.839 -2.603,0.241 -12.093,-7.605c-9.073,-7.5 -10.049,-10.885 -14.57,-17.88c-3.161,-4.889 -4.98,-14.215 -5.231,-15.499c-2.834,-14.524 1.635,-22.75 3.894,-29.415c5.134,-15.141 48.245,-66.053 14.843,-76.301c-0.257,-0.079 -12.247,-2.187 -18.619,4.16c-7.515,7.486 -7.124,13.71 -7.132,22.746Z" style="fill:#bd5656;"/><path d="M144.681,178.897c13.333,0.842 9.944,22.14 -7.605,32.1c-14.769,8.383 -24.346,13.986 -29.264,2.71c-2.951,-6.767 5.943,-23.561 14.081,-33.484c24.889,-30.345 22.609,-32.028 25.989,-41.835c0.828,-2.404 -1.159,-0.295 -7.544,1.23c-20.182,4.818 -37.608,-17.619 -18.79,-30.304c9.449,-6.369 26.387,-16.859 39.16,4.038c1.314,2.15 2.419,8.643 2.488,8.603c0.163,-0.094 5.092,-8.804 5.543,-13.265c0.08,-0.794 0.915,-1.48 0.991,-7.366c0.266,-20.724 -16.345,-36.886 -41.418,-35.266c-15.152,0.979 -17.765,6.267 -22.152,10.65c-5.678,5.673 -25.345,34.39 -6.721,61.14c5.075,7.289 18.283,16.305 28.58,12.499c0.075,-0.028 1.192,-0.44 0.81,0.593c-0.356,0.963 -14,8.988 -17.138,9.099c-2.334,0.083 -8.603,1.008 -16.67,-4.404c-11.778,-7.902 -15.554,-20.633 -15.866,-21.565c-7.631,-22.786 5.315,-59.363 51.338,-74.769c18.899,-6.326 38.938,0.149 48.262,14.759c11.826,18.529 4.086,41.542 -14.669,53.788c-2.31,1.509 -1.581,4.781 -3.794,10.049c-7.108,16.924 -20.635,29.607 -23.921,35.078c-0.28,0.465 -0.31,0.373 -4.062,5.437c-1.653,2.231 -4.903,6.423 -2.304,4.844c6.838,-4.154 13.451,-4.326 14.675,-4.358Zm-15.001,-68.7c-3.739,0.184 -2.021,16.953 12.57,20.504c1.106,0.269 6.289,1.881 6.325,0.075c0.204,-10.322 -8.71,-19.983 -18.895,-20.579Zm2.516,100.272c5.913,-6.18 10.137,-20.474 -0.069,-22.6c-7.176,-1.495 -7.358,3.34 -7.871,4.822c-1.783,5.144 -5.436,14.242 2.673,18.046c3.033,1.423 4.93,-0.013 5.266,-0.268Z" style="fill:#be5556;"/><path id="_2" serif:id="2" d="M178.941,60.953c1.159,-11.173 21.519,-25.2 28.23,-28.013c6.421,-2.692 19.718,-9.693 22.213,-2.764c2.671,7.42 -38.738,28.834 -42.99,30.733c-5.663,2.529 -5.496,2.82 -6.007,2.985c-2.234,0.721 -1.925,-0.636 -1.445,-2.941Zm29.327,-16.048c7.327,-8.844 -3.872,-6.063 -4.004,-5.91c-4.607,5.344 -4.491,5.458 -6.698,12.134c-0.534,1.615 6.972,-3.174 10.702,-6.224Z" style="fill:#be5656;"/><path id="_1" serif:id="1" d="M186.307,25.768c-0.368,1.852 -2.032,10.23 -7.509,22.381c-2.127,4.719 -5.157,5.347 -10.108,8.18c-2.132,1.22 -1.774,-0.404 -2.503,-2.73c-0.812,-2.589 0.389,-25.418 11.02,-31.25c2.019,-1.108 9.018,-5.817 9.382,-0.652c0.023,0.326 0.151,2.14 -0.282,4.071Zm-11.195,10.357c-0.032,0.097 -2.668,13.804 0.326,3.815c3.878,-12.936 3.831,-14.007 2.782,-13.636c-0.63,0.223 -2.901,9.022 -3.107,9.82Z" style="fill:#be5656;"/><path d="M199.499,73.117c-10.269,0.764 -10.277,0.405 -11.168,0.473c-12.147,0.923 24.191,-22.202 41.7,-19.63c6.642,0.976 -2.78,9.058 -12.765,13.122c-3.953,1.609 -3.733,1.953 -7.648,3.515c-5.436,2.17 -7.752,2.063 -10.118,2.519Zm13.919,-7.685c3.216,-0.859 3.227,-0.717 4.672,-1.37c10.106,-4.563 -2.89,-4.815 -14.478,-0.831c-15.289,5.256 4.648,3.675 9.806,2.201Z" style="fill:#bd5657;"/><path id="_-" serif:id="!" d="M90.68,205.121c-2.684,-0.568 -2.75,-0.674 -4.284,-2.942c-2.535,-3.747 19.029,-24.517 23.445,-16.342c0.884,1.637 -2.073,7.309 -3.733,9.192c-2.509,2.846 -3.619,3.74 -11.392,8.734c-1.263,0.811 -1.305,0.595 -4.036,1.358Zm7.368,-6.08c1.87,-0.344 3.658,-5.535 3.846,-6.079c1.355,-3.933 -3.329,-3.038 -3.736,-2.393c-1.769,2.799 -7.648,8.359 -0.109,8.473Z" style="fill:#bd5657;"/></g></svg>