<?xml version="1.0" encoding="UTF-8" standalone="no"?><!DOCTYPE svg PUBLIC "-//W3C//DTD SVG 1.1//EN" "http://www.w3.org/Graphics/SVG/1.1/DTD/svg11.dtd"><svg width="100%" height="100%" viewBox="0 0 245 245" version="1.1" xmlns="http://www.w3.org/2000/svg" xmlns:xlink="http://www.w3.org/1999/xlink" xml:space="preserve" xmlns:serif="http://www.serif.com/" style="fill-rule:evenodd;clip-rule:evenodd;stroke-linejoin:round;stroke-miterlimit:2;"><g id="Background"><path d="M125.592,187.66c-6.937,-0.809 -13.609,1.884 -14.714,2.33c-12.774,5.156 -15.915,8.41 -23.661,-3.628c-2.08,-3.232 -11.761,-27.686 -31.91,-12.382c-15.818,12.015 -26.979,16.927 -28.39,17.711c-14.425,8.017 -14.832,-3.182 -13.351,-16.458c3.776,-33.858 3.315,-33.894 3.725,-36.826c0.559,-3.993 0.61,-7.773 0.62,-8.451c0.103,-7.501 3.787,-56.094 -9.594,-56.447c-2.084,-0.055 7.485,-6.083 8.707,-6.604c6.461,-2.755 7.809,-5.045 12.116,0.487c0.432,0.554 4.502,-2.914 20.1,-9.958c34.512,-15.584 57.139,-3.693 61.602,-1.345c4.065,2.139 10.798,10.805 12.297,16.046c0.578,2.021 4.351,-16.631 24.258,-20.543c12.231,-2.404 30.482,-6.918 69.224,15.475c2.063,1.192 1.403,-1.678 4.412,-2.869c4.081,-1.615 19.812,9.273 17.471,9.317c-13.267,0.251 -10.383,48.465 -8.17,73.892c1.272,14.617 1.793,14.552 1.832,15.826c0.144,4.743 0.827,6.788 0.847,7.632c0.175,7.508 3.394,21.231 -3.772,23.502c-7.084,2.245 -41.274,-22.96 -42.877,-23.658c-18.146,-7.904 -23.74,13.152 -29.93,20.084c-9.065,10.149 -17.667,-2.784 -30.84,-3.134Zm-0.546,-10.082c2.393,-0.5 -0.569,-2.044 -1.261,-10.007c-0.24,-2.768 -0.687,1.566 -2.01,6.567c-0.727,2.748 -1.601,3.544 -0.282,3.428c1.794,-0.158 1.737,-0.077 3.553,0.013Zm90.653,-23.624c-3.4,-32.424 -3.186,-39.492 -3.319,-43.916c-1.152,-38.449 5.685,-39.325 3.445,-40.557c-20.362,-11.196 -36.165,-10.632 -48.229,-8.684c-29.555,4.772 -31.273,30.081 -32.312,47.897c-1.334,22.879 5.152,69.16 5.704,70.84c0.969,2.948 4.511,-10.921 14.072,-18.193c3.545,-2.696 10.523,-2.416 12.556,-1.751c6.01,1.964 11.491,3.42 22.139,9.796c20.707,12.4 20.425,16.089 24.494,14.905c0.799,-0.232 3.717,-1.082 3.234,-9.881c-0.09,-1.64 -0.839,-15.264 -1.786,-20.456Zm-104.176,-46.91c-0.291,-4.373 -0.191,-16.816 -7.159,-30.296c-10.386,-20.094 -43.93,-19.718 -61.142,-12.806c-1.045,0.42 -12.896,5.179 -12.586,6.298c1.64,5.923 2.527,5.734 3.674,20.984c1.08,14.369 -0.694,36.14 -0.949,39.272c-2.276,27.918 -2.803,27.847 -2.98,30.275c-0.843,11.565 -3.001,22.895 3.563,23.846c2.323,0.337 38.748,-31.43 55.656,-24.41c8.786,3.648 14.071,18.901 15.858,19.535c1.737,0.617 7.859,-61.956 6.065,-72.698Z" style="fill:#bf5556;"/><path d="M197.038,87.254c-11.804,-2.931 -26.217,-1.427 -33.556,0.625c-9.112,2.548 -17.997,8.329 -14.664,4.477c2.439,-2.818 1.689,-3.456 4.784,-5.595c10.078,-6.968 25.032,-8.316 26.271,-8.593c3.813,-0.851 19.189,0.145 22.866,1.677c1.894,0.789 -3.911,7.276 -5.7,7.409Z" style="fill:#be5757;"/><path d="M48.956,87.254c-1.354,-0.315 -3.733,-2.648 -4.428,-3.905c-1.224,-2.214 -2.677,-3.141 -0.208,-3.844c1.118,-0.318 14.646,-3.082 27.003,-0.585c2.081,0.421 21.193,4.283 24.065,11.188c0.375,0.902 4.939,5.434 0.704,3.11c-10.457,-5.74 -29.297,-10.222 -47.136,-5.965Z" style="fill:#be5757;"/><path d="M83.556,122.122c12.808,5.022 14.343,7.708 15.037,8.922c1.277,2.235 4.212,4.998 1.39,3.749c-7.004,-3.102 -13.594,-6.96 -26.767,-9.662c-11.686,-2.397 -19.62,1.18 -20.68,0.152c-6.157,-5.972 -5.607,-6.84 -4.963,-7.093c3.966,-1.556 15.502,-2.521 26.216,0.541c2.167,0.619 7.808,2.597 9.768,3.391Z" style="fill:#be5657;"/><path d="M173.85,118.374c1.921,-0.421 15.777,-3.456 24.585,-0.206c1.752,0.646 -4.681,7.856 -6.045,7.49c-18.083,-4.859 -35.973,4.44 -46.364,9.154c-2.809,1.274 -0.099,-1.053 1.417,-3.744c3.289,-5.836 23.246,-11.94 26.406,-12.693Z" style="fill:#be5657;"/><path d="M176.319,98.118c3.093,-0.29 8.055,-1.83 17.724,-0.849c2.013,0.204 6.198,0.449 5.708,1.587c-0.648,1.504 -1.769,2.734 -1.96,2.943c-2.662,2.918 -2.573,3.804 -6.466,3.301c-25.724,-3.321 -44.461,10.35 -45.235,9.998c-0.355,-0.161 -0.216,-0.355 2.385,-4.253c3.014,-4.517 14.373,-10.224 27.845,-12.727Z" style="fill:#bd5657;"/><path d="M69.681,98.118c3.135,0.225 23.029,5.413 27.963,12.826c1.141,1.714 1.347,1.503 2.449,3.263c3.032,4.841 -16.425,-12.874 -45.416,-9.101c-2.509,0.326 -2.934,0.717 -5.521,-2.374c-1.08,-1.29 -4.279,-4.651 -1.829,-4.884c8.578,-0.818 8.546,-1.394 17.168,-0.553c2.109,0.206 4.775,0.74 5.187,0.822Z" style="fill:#bd5657;"/><path d="M169.5,145.433c-5.216,0.191 -17.928,4.407 -16.286,2.573c2.343,-2.616 1.83,-2.989 4.344,-5.445c3.147,-3.074 27.555,-8.523 39.651,-2.383c1.024,0.52 -4.634,7.754 -6.431,7.204c-3.204,-0.981 -8.385,-3.498 -19.115,-2.265c-1.134,0.13 -1.095,0.069 -2.164,0.315Z" style="fill:#be5657;"/><path d="M80.055,145.959c-12.722,-2.095 -15.67,-1.484 -24.579,1.367c-2.124,0.68 -7.793,-6.687 -6.494,-7.218c13.273,-5.422 25.322,-1.769 33.782,-0.019c0.694,0.144 5.81,1.202 7.539,4.65c1.113,2.22 4.109,4.571 1.713,3.878c-6.267,-1.814 -9.154,-2.088 -11.961,-2.658Z" style="fill:#be5657;"/></g></svg>