<?xml version="1.0" encoding="UTF-8" standalone="no"?><!DOCTYPE svg PUBLIC "-//W3C//DTD SVG 1.1//EN" "http://www.w3.org/Graphics/SVG/1.1/DTD/svg11.dtd"><svg width="100%" height="100%" viewBox="0 0 641 325" version="1.1" xmlns="http://www.w3.org/2000/svg" xmlns:xlink="http://www.w3.org/1999/xlink" xml:space="preserve" xmlns:serif="http://www.serif.com/" style="fill-rule:evenodd;clip-rule:evenodd;stroke-linejoin:round;stroke-miterlimit:2;"><g transform="matrix(179.058656,0,0,179.058656,624.465796,195.002731)"></g><text x="237.846px" y="195.003px" style="font-family:'MonotypeCorsiva', 'Monotype Corsiva', cursive;font-style:italic;font-size:179.059px;fill:#fff;">&apos;s blog</text><path d="M228.903,161.648c-6.869,16.904 -19.649,24.411 -21.986,25.784c-12.416,7.293 -25.323,16.55 -31.427,-7.407c-2.654,-10.418 -1.802,-24.078 -2.89,-13.414c-0.28,2.744 -6.823,42.863 -23.434,63.445c-1.96,2.429 -11.821,14.647 -31.877,22.491c-36.415,14.242 -36.833,-50.942 -47.713,-51.549c-2.835,-0.158 -5.297,40.393 -30.347,54.956c-10.641,6.186 -22.732,15.215 -24.529,-6.805c-0.654,-8.009 2.453,-39.059 32.823,-70.625c9.93,-10.321 13.496,-11.302 13.922,-14.643c0.847,-6.648 5.686,-44.621 4.008,-83.679c-0.046,-1.081 -35.131,22.922 -47.029,1.811c-4.387,-7.784 -1.26,-8.617 6.495,-12.994c7.167,-4.045 7.838,-3.334 7.865,-2.67c0.855,20.942 32.255,14.869 32.441,9.852c0.737,-19.89 -5.361,-48.097 10.408,-61.454c4.554,-3.857 16.828,-10.667 22.769,-10.001c24.11,2.705 13.97,37.956 -15.531,63.019c-3.984,3.385 2.292,4.875 -2.647,65.295c-1.398,17.108 -2.635,19.826 -1.2,18.893c4.25,-2.762 54.824,-35.631 61.36,-15.773c3.308,10.051 -13.482,32.604 -49.526,51.292c-5.747,2.98 -6.106,3.131 -5.716,3.499c0.337,0.318 5.635,0.29 12.168,24.194c8.411,30.772 26.927,33.086 32.231,27.614c30.681,-31.655 25.741,-106.337 43.166,-119.887c2.538,-1.974 14.09,-9.566 15.628,-6.359c3.394,7.079 -4.658,64.568 13.928,69.362c2.28,0.588 14.652,-20.395 24.439,-46.527c1.579,-4.216 2.204,-14.434 19.353,-19.821c3.171,-0.996 1.732,1.853 -0.557,41.546c-6.182,107.165 -7.286,135.522 -57.868,155.95c-22.021,8.893 -56.522,8.135 -69.89,-5.101c-1.77,-1.752 14.643,-11.202 16.457,-9.688c22.469,18.75 62.374,9.371 68.392,3.7c24.764,-23.335 22.896,-96.768 26.724,-141.698c0.131,-1.542 0.946,-1.901 -0.412,-2.605Zm-197.838,76.84c0.101,1.182 1.023,11.926 4.606,14.098c1.591,0.964 16.412,-26.022 23.777,-74.879c0.311,-2.066 1.04,-4.24 -0.205,-2.562c-9.58,12.914 -25.598,28.249 -28.178,63.343Zm50.147,-195.456c0.006,16.358 0.116,17.966 0.917,16.877c28.507,-38.763 3.55,-46.448 2.562,-44.077c-3.718,8.929 -3.46,26.622 -3.479,27.2Zm33.774,96.925c-10.696,1.163 -10.893,0.609 -20.559,5.284c-3.816,1.846 -16.537,11.309 -16.863,12.334c-0.861,2.702 0.136,2.879 -5.559,31.57c-0.49,2.47 -2.352,5.288 0.806,3.69c9.32,-4.716 16.555,-5.754 31.404,-16.483c7.62,-5.506 34.201,-33.084 10.772,-36.395Z" style="fill:#fff;"/></svg>