<?xml version="1.0" encoding="UTF-8" standalone="no"?><!DOCTYPE svg PUBLIC "-//W3C//DTD SVG 1.1//EN" "http://www.w3.org/Graphics/SVG/1.1/DTD/svg11.dtd"><svg width="100%" height="100%" viewBox="0 0 2048 1084" version="1.1" xmlns="http://www.w3.org/2000/svg" xmlns:xlink="http://www.w3.org/1999/xlink" xml:space="preserve" xmlns:serif="http://www.serif.com/" style="fill-rule:evenodd;clip-rule:evenodd;stroke-linejoin:round;stroke-miterlimit:2;"><g id="Background"><path d="M2005.866,590c-4.504,346.518 -407.771,331.243 -500.974,341.355c-15.114,1.64 -153.243,1.916 -189.875,0.183c-288.392,-13.646 -390.969,-43.418 -574.017,-39.713c-22.17,0.449 -9.324,32.989 -69.267,79.134c-106.296,81.829 -254.245,54.456 -269.316,15.288c-24.994,-64.957 55.671,-126.176 112.465,-136.747c90.992,-16.937 186.285,-3.839 188.819,-13.208c5.709,-21.108 7.6,-28.101 23.433,-272.317c1.964,-30.291 -8.838,47.503 -89.941,84.491c-14.915,6.802 -44.912,13.097 -55.842,-8.651c-27.806,-55.333 -8.85,-123.154 -19.396,-75.522c-0.233,1.053 -5.543,109.287 -67.962,190.465c-39.544,51.428 -131.937,117.215 -178.33,26.916c-34.853,-67.838 -41.341,-151.858 -58.486,-83.628c-10.178,40.507 -31.998,118.024 -108.419,149.361c-58.941,24.169 -59.03,-94.685 21.431,-201.976c45.706,-60.947 69.652,-61.658 72.913,-87.414c4.179,-33.011 22.297,-238.777 3.898,-230.015c-13.783,6.564 -82.362,46.768 -119.762,13.738c-28.133,-24.847 -4.638,-41.127 -1.802,-43.092c39.828,-27.597 38.135,0.016 38.473,1.121c12.147,39.723 88.843,31.931 88.858,8.232c0.036,-56.484 -22.714,-175.81 84.317,-199.611c62.794,-13.964 68.101,78.678 -6.469,155.245c-5.273,5.414 -30.899,27.532 -30.758,38.359c1.197,91.864 3.759,91.851 -7.446,209.951c-1.726,18.189 1.146,18.306 2.594,18.097c6.076,-0.873 137.981,-94.706 171.32,-49.644c2.716,3.671 22.371,43.955 -76.846,114.261c-60.493,42.866 -79.706,45.936 -76.058,51.17c41.979,60.229 24.47,68.904 54.54,119.583c8.129,13.7 51.418,68.28 90.676,4.377c56.74,-92.36 65.371,-288.898 101.139,-318.923c14.562,-12.224 46.873,-36.779 50.527,-8.776c0.58,4.443 -6.769,190.5 36.718,186.143c5.525,-0.554 36.055,-35.51 74.069,-142.201c15.686,-44.025 56.881,-51.516 57.196,-42.003c0.083,2.506 -9.006,261.29 -30.017,387.843c-0.976,5.88 -0.143,7.136 6.728,7.194c319.737,2.684 317.868,39.692 684.002,39.692c351.443,-0 447.815,-95.363 475.759,-123.014c171.133,-169.341 37.895,-421.479 -123.062,-546.734c-86.923,-67.642 -92.954,-59.349 -102.613,-71.073c-6.621,-8.036 -6.008,-54.573 1.961,-52.359c10.444,2.901 195.328,101.719 272.254,282.284c46.224,108.5 42.567,178.449 42.567,222.139Zm-1730.197,28.119c-1.173,5.979 -8.874,32.447 -0.547,30.59c4.927,-1.098 54.446,-22.834 83.745,-42.903c61.172,-41.903 99.909,-125.874 10.314,-105.08c-23.328,5.414 -79.616,32.828 -83.607,57.374c-0.967,5.95 -1.752,11.928 -2.641,17.891c-0.505,3.383 -1.07,3.247 -7.263,42.129Zm24.027,-424.086c-0.411,19.515 -3.292,80.752 4.544,69.251c8.67,-12.724 67.491,-94.95 14.506,-122.748c-15.89,-8.337 -17.186,32.502 -19.05,53.497Zm-144.076,568.02c-1.872,59.779 11.591,58.591 15.14,55.643c27.544,-22.885 81.281,-247.586 60.785,-215.263c-16.184,25.521 -66.409,81.134 -75.924,159.62Zm403.352,133.206c-16.337,2.647 -68.92,4.145 -107.477,35.311c-22.67,18.324 -8.088,27.534 12.134,42.582c25.213,18.763 171.418,57.879 212.633,-37.485c8.753,-20.253 18.88,-43.802 10.749,-43.86c-10.247,-0.073 -79.683,-0.565 -128.039,3.451Z" style="fill:#fefefe;"/><path d="M1699.853,598.152c2.598,-11.501 18.98,-84.035 77.781,-125.19c41.821,-29.271 85.016,-24.409 87.385,-24.428c6.177,-0.05 9.058,-10.34 19.943,-9.951c8.03,0.287 4.672,11.887 -3.986,39.409c-31.679,100.703 -31.248,100.932 -41.63,206.046c-12.506,126.61 -148.998,119.829 -179.547,77.368c-42.979,-59.738 81.422,-107.946 91.015,-113.68c35.658,-21.314 -18.23,4.776 -25.879,5.808c-38.821,5.239 -25.097,-55.268 -25.081,-55.383Zm40.255,-34.359c-1.07,5.526 -17.815,92.016 36.764,59.984c7.578,-4.447 36.084,-9.195 64.408,-135.71c4.226,-18.878 -50.622,-14.945 -71.389,12.58c-15.455,20.483 -28.005,57.851 -29.783,63.146Zm56.307,156.014c4.206,-16.02 8.763,-20.628 12.34,-95.802c0.024,-0.498 0.374,-7.87 -5.268,-3.322c-60.416,48.698 -83.169,58.252 -99.897,73.981c-77.105,72.498 56.076,117.196 92.825,25.144Z" style="fill:#fdfdfd;"/><path d="M1188.281,519.848c13.287,-56.666 16.257,-74.367 32.19,-126.018c27.766,-90.012 107.149,-95.926 124.809,-88.53c17.031,7.133 20.223,39.216 -34.189,30.113c-62.526,-10.46 -41.748,27.355 -78.141,144.578c-4.759,15.328 8.515,-5.619 32.539,-21.18c125.592,-81.345 86.808,172.664 -16.332,199.737c-113.25,29.727 -68.266,-104.535 -60.876,-138.7Zm19.509,60.308c-13.087,93.728 47.377,70.214 68.359,35.318c50.043,-83.229 31.999,-187.318 -28.494,-122.906c-25.708,27.373 -38.102,80.093 -39.864,87.588Z" style="fill:#fdfefd;"/><path d="M1677.764,528.063c-16.225,140.841 -162.002,165.23 -178.119,95.775c-29.895,-128.832 129.662,-245.931 172.922,-139.66c6.303,15.484 5.335,40.353 5.197,43.885Zm-42.05,7.957c-0.251,-16.354 1.443,-16.27 -2.316,-32.102c-21.625,-91.053 -108.473,-20.291 -93.6,97.963c7.796,61.988 84.692,62.125 95.917,-65.861Z" style="fill:#fdfdfd;"/><path d="M1546.933,336.847c-2.133,-0.354 -1.984,-0.036 -4.003,-0.37c-8.224,-1.363 -7.848,-1.564 -15.858,-2.921c-50.239,-8.511 -47.935,14.792 -76.536,130.336c-36.247,146.432 -38.183,166.844 -33.316,169.598c13.856,7.842 55.969,-44.943 65.598,-33.346c4.61,5.552 -17.183,23.17 -19.129,24.743c-10.996,8.889 -77.885,68.088 -85.199,19.181c-5.071,-33.91 53.356,-244.715 60.247,-264.168c18.88,-53.293 68.661,-78.07 104.261,-78.501c36.369,-0.441 40.218,36.543 3.935,35.448Z" style="fill:#fdfdfd;"/><path d="M1004.22,582.182c15.113,108.566 -163.158,92.46 -136.374,28.186c6.579,-15.789 32.594,-12.674 33.677,3.567c0.023,0.345 -2.335,26.987 17.691,33.358c19.548,6.22 74.149,-16.847 43.393,-61.015c-20.557,-29.521 -83.508,-89.734 -13.015,-133.31c36.917,-22.821 98.368,0.545 82.581,28.517c-14.137,25.049 -43.644,-21.073 -59.189,-21.261c-14.272,-0.173 -37.003,19.089 -19.013,47.159c20.654,32.227 36.452,37.186 50.25,74.799Z" style="fill:#fdfdfd;"/><path d="M883.358,410.111c-15.818,45.538 -30.376,90.836 -36.417,77.929c-2.661,-5.684 17.581,-158.379 46.145,-132.135c8.242,7.572 -5.943,43.018 -9.727,54.206Z" style="fill:#fcfcfb;"/></g></svg>