<?xml version="1.0" encoding="UTF-8" standalone="no"?><!DOCTYPE svg PUBLIC "-//W3C//DTD SVG 1.1//EN" "http://www.w3.org/Graphics/SVG/1.1/DTD/svg11.dtd"><svg width="100%" height="100%" viewBox="0 0 641 325" version="1.1" xmlns="http://www.w3.org/2000/svg" xmlns:xlink="http://www.w3.org/1999/xlink" xml:space="preserve" xmlns:serif="http://www.serif.com/" style="fill-rule:evenodd;clip-rule:evenodd;stroke-linejoin:round;stroke-miterlimit:2;"><g><path d="M228.379,162.559c-11.126,25.11 -41.046,40.15 -48.582,27.97c-9.235,-14.926 -4.789,-41.496 -7.503,-22.834c-11.547,79.424 -60.566,92.858 -74.571,84.078c-17.576,-11.019 -22.25,-57.316 -28.679,-50.1c-2.763,3.1 -5.258,47.31 -41.887,60.691c-19.099,6.977 -17.769,-40.116 14.69,-77.586c14.889,-17.187 18.78,-14.965 20.045,-24.364c2.654,-19.731 6.217,-81.534 2.25,-79.647c-4.023,1.914 -37.088,21.776 -46.813,-1.048c-1.641,-3.851 -1.271,-6.897 11.152,-12.564c7.783,-3.55 2.869,5.897 10.257,10.617c9.743,6.224 26.453,2.547 26.49,-2.359c0.224,-29.654 -7.476,-58.653 27.458,-69.852c22.384,-7.176 28.891,25.821 -4.846,57.712c-0.617,0.584 -6.451,6.098 -6.369,8.5c0.126,3.702 2.758,27.395 -2.905,77.064c-0.028,0.244 -0.411,3.602 0.762,2.97c9.181,-4.941 8.506,-6.013 26.084,-14.557c33.361,-16.216 38.131,-2.128 33.758,8.46c-9.685,23.448 -54.642,44.517 -53.571,45.49c14.395,13.069 12.208,52.409 37.455,53.906c23.379,1.386 37.729,-95.448 40.349,-104.048c4.076,-13.38 6.255,-17.929 19.745,-24.345c7.512,-3.573 6.122,7.903 6.196,12.723c0.036,2.338 -2.253,54.4 12.63,56.274c3.153,0.397 17.335,-24.538 25.942,-50.247c4.34,-12.963 19.117,-16.984 19.652,-15.171c0.329,1.113 -4.821,116.94 -11.909,142.599c-3.164,11.453 -8.28,41.179 -53.107,55.969c-32.698,10.788 -71.764,-2.927 -62.98,-9.581c14.218,-10.77 16.402,-5.494 18.776,-4.015c19.371,12.062 57.034,10.783 68.168,-3.692c21.61,-28.092 19.044,-104.935 23.192,-138.74c0.133,-1.085 -0.42,-0.747 -1.326,-0.274l-121.358,11.502c8.987,-9.484 8.999,-9.363 9.705,-10.243c24.015,-29.899 -14.344,-30.392 -38.44,-6.925c-2.049,1.996 -0.888,2.558 -7.057,35.049c-0.306,1.613 1.904,0.708 2.064,0.643c20.635,-8.442 31.289,-16.646 33.728,-18.524l121.358,-11.502l-173.003,17.497c-3.258,4.272 -28.006,36.716 -23.704,62.838c0.371,2.254 2.252,13.518 6.164,7.18c13.453,-21.796 23.941,-78.468 21.11,-74.822c-0.294,0.378 -0.264,0.356 -3.57,4.804l173.003,-17.497l-135.951,-143.346c-0.5,-0.428 -5.753,-4.933 -7.567,-3.225c-1.281,1.206 -3.247,12.636 -3.44,19.389c-0.663,23.233 0.078,25.536 1.152,23.947c9.514,-14.077 17.849,-27.562 9.855,-40.111l135.951,143.346Z" style="fill:#fff;fill-opacity:1;"/><path d="M580.366,194.683c0.232,-0.134 15.964,-9.414 2.174,-2.551c-21.896,10.898 -18.293,-18.406 -7.764,-37.715c20.241,-37.121 50.83,-30.74 51.187,-31.288c3.738,-5.73 7.727,-2.812 7.724,-2.802c-7.436,30.852 -15.181,36.423 -17.771,81.946c-2.785,48.928 -56.846,44.607 -64.133,26.609c-8.005,-19.771 24.201,-31.513 28.582,-34.198l10.393,35.813c8.334,-7.724 12.782,-8.699 14.42,-47.716c0.004,-0.089 -0.404,-1.064 -1.299,-0.33c-15.087,12.373 -26.814,19.205 -33.891,24.956c-21.598,17.549 -2.196,37.693 20.77,23.091l-10.393,-35.813l12.148,-54.643c-18.279,23.833 -17.571,60.146 6.12,40.689c3.007,-2.47 9.658,-7.932 18.002,-45.185c0.137,-0.613 0.631,-2.818 -7.433,-2.536c-10.811,0.378 -15.312,5.923 -16.689,7.031l-12.148,54.643Z" style="fill:#fff;fill-opacity:1;"/><path d="M412.246,84.204c1.82,-1.503 15.32,-12.65 27.02,-11.852c0.893,0.061 9.581,0.654 8.967,6.699c-0.918,9.042 -18.733,4.146 -20.536,3.913c-14.88,-1.925 -13.787,21.691 -22.65,52.608c-0.903,3.148 4.53,-5.09 13.713,-10.152c42.817,-23.605 27.065,66.874 -12.91,71.753c-31.392,3.832 -19.585,-32.833 -18.336,-38.638c14.286,-66.374 17.498,-65.631 24.731,-74.331l-1.199,53.442c-18.089,20.786 -21.51,59.191 -2.197,53.479c22.464,-6.644 33.528,-81.034 2.197,-53.479l1.199,-53.442Z" style="fill:#fff;fill-opacity:1;"/><path d="M513.617,132.781c25.878,-23.314 49.382,-8.742 45.826,20.329c-5.139,42.02 -54.553,57.701 -61.615,30.857c-6.832,-25.97 12.927,-47.996 15.789,-51.186l25.465,-1.814c-23.618,-16.568 -36.767,46.016 -21.29,57.657c18.398,13.838 37.296,-38.427 21.29,-57.657l-25.465,1.814Z" style="fill:#fff;fill-opacity:1;"/><path d="M487.539,182.55c-8.165,6.872 -37.696,32.276 -30.999,-3.295c1.243,-6.6 16.394,-73.263 22.039,-84.479c13.865,-27.549 50.732,-27.516 43.556,-13.469c-5.257,10.289 -25.721,-9.259 -32.318,11.168c-0.189,0.585 -23.665,91.959 -21.361,94.573c3.532,4.008 20.783,-13.136 21.758,-12.608c4.995,2.704 1.346,4.003 -2.673,8.109Z" style="fill:#fff;fill-opacity:1;"/><path d="M333.977,126.082c0.501,0.761 6.27,9.516 -2.783,11.047c-6.798,1.149 -12.684,-17.018 -22.309,-6.976c-15.253,15.914 38.002,34.069 8.845,61.012c-13.543,12.515 -46.439,4.006 -39.091,-11.861c2.696,-5.821 11.906,-4.639 11.757,2.326c-0.371,17.312 20.238,11.364 24.065,0.688c4.929,-13.751 -34.772,-33.376 -11.676,-54.607c6.942,-6.381 16.034,-6.262 17.522,-6.243c9.652,0.126 12.419,3.71 13.671,4.613Z" style="fill:#fff;fill-opacity:1;"/><path d="M281.699,91.495c7.738,-3.741 7.804,1.818 5.063,9.969c-11.934,35.476 -12.963,37.504 -15.524,35.728c-1.005,-0.697 4.882,-39.518 10.461,-45.697Z" style="fill:#fff;fill-opacity:1;"/></g></svg>